<svg xmlns="http://www.w3.org/2000/svg" xmlns:xlink="http://www.w3.org/1999/xlink"  x="0px" y="0px" viewBox="144.5 696.5 300 200" enable-background="new 144.5 696.5 300 200" xml:space="preserve">
                            <switch>
                                <g>
                                    <g>
                                        <rect id="_x35_7" x="144.5" y="796.5" width="300" height="100"/>
                                        <rect id="_x35_6" x="144.5" y="696.5" fill="#CE1126" width="300" height="100"/>
                                        <rect id="_x35_5" x="144.5" y="763.166" fill="#FFFFFF" width="300" height="66.667"/>
                                        <path id="_x35_4" fill="#FFFFFF" stroke="#C09300" stroke-width="0.7926" stroke-linecap="round" stroke-linejoin="round" d="     M294.5,827.77c6.647,0,13.008-0.526,16.738-1.578c1.578-0.286,1.578-1.099,1.578-2.152c1.578-0.526,0.765-2.39,1.865-2.39     c-1.1,0.287-1.339-1.865-2.677-1.577c0-1.865-1.865-2.104-3.443-1.579c-3.157,1.052-8.752,1.292-14.06,1.292     c-5.308-0.239-10.855-0.239-14.06-1.292c-1.578-0.525-3.442-0.286-3.442,1.579c-1.34-0.287-1.578,1.865-2.678,1.577     c1.1,0,0.286,1.864,1.865,2.39c0,1.052,0,1.866,1.626,2.152C281.492,827.244,287.853,827.77,294.5,827.77L294.5,827.77z"/>
                                        <path id="_x35_3" fill="#FFFFFF" stroke="#C09300" stroke-width="0.4234" stroke-linecap="round" stroke-linejoin="round" d="     M294.77,797.3l22.829,21.193l-1.625-38.49c-0.239-5.833-5.308-4.495-8.991-2.391c-3.73,2.391-7.986,2.391-12.482,0.813     c-4.495,1.578-8.751,1.578-12.481-0.813c-3.682-2.104-8.751-3.443-8.99,2.391l-1.626,38.49L294.77,797.3L294.77,797.3z"/>
                                        <path id="_x35_2" fill="#C09300" d="M301.147,785.073l0.766,18.552l2.151,2.104l-0.813-20.417     C302.725,785.312,301.386,785.312,301.147,785.073L301.147,785.073z"/>
                                        <path id="_x35_1" fill="#C09300" stroke="#C09300" stroke-width="0.358" stroke-linecap="square" d="M295.553,801.52     l3.204,14.585l-1.053,1.052l-1.1-0.813l-1.817-13.006l0.765,13.006l-1.052,1.339l-1.052-1.339l0.765-13.006l-1.817,13.006     l-1.101,0.813l-1.051-1.052l3.204-14.585H295.553L295.553,801.52z"/>
                                        <path id="_x35_0" fill="#C09300" d="M275.657,778.663l-1.578,37.44l-2.678,2.389l1.626-38.49     C273.792,779.476,275.131,778.664,275.657,778.663L275.657,778.663z"/>
                                        <path id="_x34_9" fill="#C09300" d="M278.863,781.343l-1.339,31.318l-2.677,2.74l1.626-36.163     c0.526,0.526,2.105,1.816,2.391,2.104V781.343z"/>
                                        <path id="_x34_8" fill="#C09300" d="M281.78,783.733l-1.052,26.121l-2.152,2.103l1.339-29.801     C280.441,782.681,281.493,783.446,281.78,783.733L281.78,783.733z"/>
                                        <path id="_x34_7" fill="#C09300" d="M284.937,785.073l-1.052,22.262l-2.104,1.707l1.052-24.782     C283.359,784.499,284.411,785.073,284.937,785.073L284.937,785.073z"/>
                                        <path id="_x34_6" fill="#C09300" d="M287.853,785.073l-0.766,18.552l-2.151,2.104l0.813-20.417     C286.275,785.312,287.614,785.312,287.853,785.073L287.853,785.073z"/>
                                        <path id="_x34_5" fill="#C09300" d="M313.343,778.663l1.578,37.44l2.678,2.389l-1.626-38.49     C315.209,779.476,313.869,778.664,313.343,778.663L313.343,778.663z"/>
                                        <path id="_x34_4" fill="#C09300" d="M310.137,781.343l1.339,31.318l2.677,2.74l-1.626-36.163     c-0.526,0.526-2.105,1.816-2.391,2.104V781.343z"/>
                                        <path id="_x34_3" fill="#C09300" d="M307.22,783.733l1.052,26.121l2.152,2.103l-1.339-29.801     C308.559,782.681,307.507,783.446,307.22,783.733L307.22,783.733z"/>
                                        <path id="_x34_2" fill="#C09300" d="M304.063,785.073l1.052,22.262l2.104,1.707l-1.052-24.782     C305.642,784.499,304.589,785.073,304.063,785.073L304.063,785.073z"/>
                                        <path id="_x34_1" fill="#FFFFFF" stroke="#C09300" stroke-width="0.3963" stroke-linecap="round" stroke-linejoin="round" d="     M287.327,795.113l-6.36,22.568l8.752,1.339l3.729-16.975L287.327,795.113L287.327,795.113z"/>
                                        <path id="_x34_0" fill="#FFFFFF" stroke="#C09300" stroke-width="0.3963" stroke-linecap="round" stroke-linejoin="round" d="     M301.673,795.113l6.36,22.568l-8.751,1.339l-3.73-16.975L301.673,795.113L301.673,795.113z"/>
                                        <path id="_x33_9" fill="none" stroke="#C09300" stroke-width="0.4235" stroke-linecap="round" stroke-linejoin="round" d="     M303.777,802.813l-0.765,1.864l-4.135-3.949"/>
                                        <path id="_x33_8" fill="none" stroke="#C09300" stroke-width="0.4235" stroke-linecap="round" stroke-linejoin="round" d="     M296.4,807.287l2.906,4.414 M298.4,816.106l0.93-4.399l0.812-4.474l1.947,2.636l0.854-3.04l2.725,2.795l-1.386,5.084     l-1.912-3.145l-1.052,3.204l-1.964-3.054"/>
                                        <path id="_x33_7" fill="none" stroke="#C09300" stroke-width="0.4235" stroke-linecap="round" stroke-linejoin="round" d="     M285.224,802.813l0.765,1.864l4.135-3.949"/>
                                        <path id="_x33_6" fill="none" stroke="#C09300" stroke-width="0.4235" stroke-linecap="round" stroke-linejoin="round" d="     M288.087,798.14l0.865,8.116l2.63-3.443"/>
                                        <path id="_x33_5" fill="none" stroke="#C09300" stroke-width="0.4235" stroke-linecap="round" stroke-linejoin="round" d="     M290.53,804.15l1.437,4.958"/>
                                        <path id="_x33_4" fill="none" stroke="#C09300" stroke-width="0.4235" stroke-linecap="round" stroke-linejoin="round" d="     M292.53,807.287l-2.906,4.414 M290.531,816.106l-0.93-4.399l-0.812-4.474l-1.947,2.636l-0.854-3.04l-2.725,2.795l1.386,5.084     l1.913-3.145l1.052,3.204l1.964-3.054"/>
                                        <path id="_x33_3" fill="none" stroke="#C09300" stroke-width="0.4235" stroke-linecap="round" stroke-linejoin="round" d="     M282.83,817.157l1.767-2.481l1.151,3.819l1.578-2.677l1.052,3.204"/>
                                        <path id="_x33_2" fill="none" stroke="#C09300" stroke-width="0.4235" stroke-linecap="round" stroke-linejoin="round" d="     M306.24,817.157l-1.767-2.481l-1.151,3.819l-1.578-2.677l-1.052,3.204"/>
                                        <path id="_x33_1" fill="#FFFFFF" stroke="#C09300" stroke-width="0.4235" stroke-linecap="round" stroke-linejoin="round" d="     M285.463,817.68c2.151,0.287,4.543,0.526,6.408,0.287c1.051,0,1.816,1.817-0.287,2.104c-1.864,0.238-4.782,0-6.36-0.288     c-1.339-0.239-4.256-0.765-6.121-1.292c-1.865-0.812-0.525-2.389,0.526-2.151C281.255,816.867,283.359,817.393,285.463,817.68     L285.463,817.68z"/>
                                        <path id="_x33_0" fill="#FFFFFF" stroke="#C09300" stroke-width="0.4235" stroke-linecap="round" stroke-linejoin="round" d="     M303.54,817.68c-2.152,0.287-4.543,0.526-6.36,0.287c-1.1,0-1.865,1.817,0.239,2.104c1.865,0.238,4.782,0,6.359-0.288     c1.339-0.239,4.256-0.765,6.121-1.292c1.866-0.812,0.527-2.389-0.526-2.151C307.748,816.867,305.644,817.393,303.54,817.68     L303.54,817.68z"/>
                                        <path id="_x32_9" fill="#FFFFFF" stroke="#C09300" stroke-width="0.4235" stroke-linecap="round" stroke-linejoin="round" d="     M278.863,816.63c-1.626-0.287-2.391,1.577-1.864,2.629c0.239-0.526,1.339-0.526,1.578-1.052     C278.863,817.395,278.338,817.395,278.863,816.63L278.863,816.63z"/>
                                        <path id="_x32_8" fill="#FFFFFF" stroke="#C09300" stroke-width="0.4235" stroke-linecap="round" stroke-linejoin="round" d="     M285.224,821.52c0-1.051,1.051-0.922,1.051-1.974c0-0.526-0.286-1.339-0.812-1.339c-0.526,0-1.053,0.526-1.053,1.052     C284.171,820.311,285.224,820.469,285.224,821.52z"/>
                                        <path id="_x32_7" fill="#FFFFFF" stroke="#C09300" stroke-width="0.4235" stroke-linecap="round" stroke-linejoin="round" d="     M292.794,818.493c1.577,0,1.421,2.104,0.655,3.157c0-0.765-1.339-1.052-1.339-1.577     C292.11,819.259,293.319,819.259,292.794,818.493L292.794,818.493z"/>
                                        <path id="_x32_6" fill="#FFFFFF" stroke="#C09300" stroke-width="0.4235" stroke-linecap="round" stroke-linejoin="round" d="     M310.137,816.63c1.626-0.287,2.392,1.577,1.865,2.629c-0.239-0.526-1.339-0.526-1.578-1.052     C310.137,817.395,310.663,817.395,310.137,816.63L310.137,816.63z"/>
                                        <path id="_x32_5" fill="#FFFFFF" stroke="#C09300" stroke-width="0.4235" stroke-linecap="round" stroke-linejoin="round" d="     M303.777,821.52c0-1.051-1.051-0.922-1.051-1.974c0-0.526,0.286-1.339,0.813-1.339c0.526,0,1.052,0.526,1.052,1.052     C304.83,820.311,303.777,820.469,303.777,821.52L303.777,821.52z"/>
                                        <path id="_x32_4" fill="#FFFFFF" stroke="#C09300" stroke-width="0.4235" stroke-linecap="round" stroke-linejoin="round" d="     M296.207,818.493c-1.577,0-1.421,2.104-0.656,3.157c0-0.765,1.339-1.052,1.339-1.577     C296.89,819.259,295.681,819.259,296.207,818.493z"/>
                                        <path id="_x32_3" fill="none" stroke="#C09300" stroke-width="0.2972" stroke-linecap="round" stroke-linejoin="round" d="     M279.39,817.157c0.527,0,1.339,0.239,1.578,0.525L279.39,817.157z"/>
                                        <path id="_x32_2" fill="none" stroke="#C09300" stroke-width="0.2972" stroke-linecap="round" stroke-linejoin="round" d="     M282.017,817.97c0.287,0,1.339,0.239,1.865,0.525L282.017,817.97z"/>
                                        <path id="_x32_1" fill="none" stroke="#C09300" stroke-width="0.2972" stroke-linecap="round" stroke-linejoin="round" d="     M291.584,819.02c-0.526,0-1.578,0-1.865,0.238L291.584,819.02z"/>
                                        <path id="_x32_0" fill="none" stroke="#C09300" stroke-width="0.2972" stroke-linecap="round" stroke-linejoin="round" d="     M288.667,819.02c-0.286-0.287-1.339-0.287-1.865,0H288.667z"/>
                                        <path id="_x31_9" fill="#FFFFFF" stroke="#C09300" stroke-width="0.2972" stroke-linecap="round" stroke-linejoin="round" d="     M309.613,817.157c-0.526,0-1.292,0.239-1.578,0.525L309.613,817.157z"/>
                                        <path id="_x31_8" fill="#FFFFFF" stroke="#C09300" stroke-width="0.2972" stroke-linecap="round" stroke-linejoin="round" d="     M306.983,817.97c-0.286,0-1.339,0.239-1.865,0.525L306.983,817.97z"/>
                                        <path id="_x31_7" fill="#FFFFFF" stroke="#C09300" stroke-width="0.2972" stroke-linecap="round" stroke-linejoin="round" d="     M297.417,819.02c0.526,0,1.578,0,1.865,0.238L297.417,819.02z"/>
                                        <path id="_x31_6" fill="#FFFFFF" stroke="#C09300" stroke-width="0.2972" stroke-linecap="round" stroke-linejoin="round" d="     M300.334,819.02c0.286-0.287,1.339-0.287,1.865,0H300.334z"/>
                                        <path id="_x31_5" fill="none" stroke="#C09300" stroke-width="0.4235" stroke-linecap="round" stroke-linejoin="round" d="     M300.963,798.14l-0.865,8.116l-2.63-3.443"/>
                                        <path id="_x31_4" fill="#FFFFFF" stroke="#C09300" stroke-width="0.3834" d="M294.493,805.577     c10.881-8.369,9.948-20.628,9.948-20.628c-0.287,0.057-0.56,0.086-0.847,0.086c-2.282,0-7.726-1.306-8.996-2.964     c-1.36,1.501-6.923,2.964-9.191,2.964c-0.287,0-0.574-0.029-0.847-0.086C284.56,784.949,283.613,797.207,294.493,805.577     L294.493,805.577z"/>
                                        <path id="_x31_3" fill="#FFFFFF" d="M303.573,785.846c-0.094,0.006-0.188,0.009-0.283,0.009c-2.069,0-6.873-1.061-8.725-2.652     c-1.94,1.47-6.824,2.652-8.859,2.652c-0.095,0-0.19-0.012-0.283-0.029c-0.005,0.464,0.019,0.944,0.048,1.381     c0.107,1.633,0.394,3.273,0.829,4.851c1.369,4.965,4.172,9.184,8.191,12.385c4.022-3.203,6.828-7.427,8.2-12.396     c0.436-1.577,0.723-3.216,0.832-4.85C303.553,786.77,303.576,786.301,303.573,785.846L303.573,785.846z"/>
                                        <g id="_x31_2">
                                            <defs>
                                                <path id="SVGID_1_" d="M303.574,785.844c-0.094,0.006-0.188,0.009-0.283,0.009c-2.068,0-6.873-1.061-8.725-2.652       c-1.939,1.47-6.823,2.652-8.858,2.652c-0.095,0-0.19-0.012-0.283-0.029c-0.005,0.464,0.02,0.944,0.048,1.381       c0.108,1.634,0.394,3.273,0.829,4.85c1.369,4.965,4.172,9.184,8.19,12.384c4.022-3.203,6.827-7.426,8.2-12.395       c0.436-1.577,0.723-3.216,0.832-4.85C303.554,786.767,303.578,786.298,303.574,785.844L303.574,785.844z"/>
                                            </defs>
                                            <clipPath id="SVGID_2_">
                                                <use xlink:href="#SVGID_1_" overflow="visible"/>
                                            </clipPath>
                                            <rect id="_43809040-4" x="283.1" y="780.302" clip-path="url(#SVGID_2_)" fill="#C09300" width="7.857" height="27.096"/>
                                            <rect id="_43612568-5" x="297.829" y="780.302" clip-path="url(#SVGID_2_)" fill="#C09300" width="8.275" height="27.096"/>
                                        </g>
                                        <path id="_x31_1" fill="none" stroke="#C09300" stroke-width="0.4235" stroke-linecap="round" stroke-linejoin="round" d="     M298.367,804.15l-1.437,4.958"/>
                                        <path id="_x31_0" fill="#C09300" d="M278.947,821.36c-0.178-0.034-0.271-0.175-0.227-0.341c0.055-0.203,0.217-0.319,0.371-0.265     c0.098,0.035,0.276,0.215,0.277,0.28c0.001,0.074-0.093,0.251-0.134,0.251c-0.018,0-0.045,0.016-0.061,0.034     C279.14,821.358,279.036,821.377,278.947,821.36L278.947,821.36z M297.255,822.667c-0.066-0.024-0.172-0.173-0.172-0.241     c0.001-0.129,0.191-0.339,0.31-0.341c0.058,0,0.218,0.083,0.278,0.145c0.108,0.113,0.085,0.298-0.051,0.403     C297.553,822.685,297.353,822.704,297.255,822.667L297.255,822.667z M297.377,823.494c-0.14-0.047-0.191-0.116-0.203-0.271     c-0.012-0.162,0.004-0.187,0.175-0.28l0.122-0.066l0.116,0.051c0.16,0.071,0.231,0.148,0.237,0.256     c0.006,0.116-0.08,0.234-0.213,0.294C297.492,823.53,297.485,823.531,297.377,823.494L297.377,823.494z M279.29,822.472     c0.086-0.074,0.087-0.149,0.004-0.185c-0.052-0.022-0.083-0.017-0.187,0.033c-0.104,0.05-0.123,0.069-0.117,0.119     c0.007,0.057,0.051,0.076,0.207,0.09C279.211,822.53,279.253,822.505,279.29,822.472L279.29,822.472z M282.1,823.94     c-0.076-0.025-0.262-0.07-0.414-0.099c-0.35-0.067-0.894-0.19-1.041-0.235c-0.062-0.019-0.175-0.048-0.251-0.065     c-0.139-0.031-0.211-0.052-0.439-0.129c-0.069-0.023-0.238-0.07-0.376-0.104c-0.138-0.034-0.299-0.081-0.358-0.106     c-0.059-0.024-0.129-0.044-0.155-0.044s-0.085-0.02-0.131-0.044c-0.046-0.024-0.155-0.051-0.244-0.059     c-0.185-0.017-0.322-0.082-0.401-0.189c-0.066-0.091-0.068-0.162-0.007-0.288c0.026-0.053,0.048-0.116,0.048-0.139     c0-0.023,0.022-0.061,0.05-0.084c0.027-0.023,0.049-0.052,0.049-0.065c0-0.028,0.116-0.197,0.185-0.268     c0.09-0.093,0.277-0.183,0.382-0.184c0.062-0.001,0.116-0.017,0.143-0.043c0.03-0.029,0.098-0.047,0.218-0.056l0.174-0.014     l0.068-0.121c0.037-0.066,0.069-0.153,0.069-0.193c0.001-0.04,0.018-0.104,0.039-0.144c0.021-0.04,0.053-0.137,0.072-0.217     c0.07-0.301,0.12-0.468,0.15-0.497c0.043-0.043,0.039-0.061-0.036-0.154c-0.04-0.05-0.088-0.082-0.122-0.081     c-0.083,0.001-0.22,0.05-0.263,0.095c-0.086,0.09-0.199,0.149-0.285,0.15c-0.119,0.001-0.271-0.084-0.328-0.183     c-0.045-0.078-0.045-0.082,0.007-0.188c0.034-0.069,0.078-0.118,0.122-0.134c0.104-0.039,0.368-0.02,0.429,0.032     c0.043,0.037,0.076,0.041,0.214,0.025c0.09-0.01,0.169-0.027,0.175-0.038c0.007-0.011,0.062-0.027,0.123-0.037     c0.061-0.009,0.116-0.032,0.123-0.05c0.007-0.019,0.053-0.041,0.101-0.05s0.101-0.032,0.116-0.05     c0.016-0.019,0.061-0.034,0.1-0.035c0.055,0,0.081,0.017,0.114,0.076c0.037,0.068,0.039,0.095,0.012,0.234     c-0.017,0.087-0.05,0.197-0.076,0.247c-0.025,0.049-0.045,0.131-0.045,0.183c0.001,0.059-0.017,0.114-0.048,0.149     c-0.027,0.031-0.049,0.08-0.049,0.11c0,0.03-0.017,0.072-0.038,0.092c-0.021,0.021-0.05,0.105-0.064,0.188     c-0.014,0.083-0.039,0.173-0.056,0.199c-0.017,0.027-0.037,0.099-0.046,0.16c-0.008,0.062-0.031,0.125-0.051,0.141     c-0.02,0.016-0.035,0.064-0.035,0.105c0,0.042-0.02,0.116-0.045,0.164c-0.025,0.049-0.053,0.146-0.062,0.216     c-0.009,0.07-0.03,0.149-0.048,0.176c-0.018,0.026-0.039,0.102-0.048,0.168c-0.009,0.066-0.033,0.145-0.053,0.175     c-0.033,0.05-0.031,0.062,0.015,0.122c0.074,0.098,0.291,0.168,0.512,0.166c0.172-0.001,0.181-0.005,0.243-0.081     c0.037-0.046,0.071-0.127,0.081-0.193c0.009-0.063,0.032-0.144,0.051-0.18c0.02-0.036,0.034-0.128,0.034-0.202     c-0.001-0.127-0.007-0.141-0.091-0.205c-0.083-0.064-0.087-0.074-0.06-0.133c0.028-0.061,0.142-0.113,0.249-0.114     c0.022,0,0.067-0.021,0.1-0.046c0.033-0.025,0.083-0.053,0.113-0.062c0.03-0.009,0.096-0.055,0.148-0.102     c0.109-0.098,0.177-0.101,0.232-0.008c0.035,0.058,0.034,0.076-0.003,0.18c-0.023,0.064-0.041,0.164-0.041,0.222     c0.001,0.059-0.014,0.123-0.033,0.145c-0.019,0.021-0.045,0.087-0.059,0.147c-0.014,0.06-0.041,0.151-0.062,0.204     s-0.037,0.14-0.037,0.193c0,0.053-0.022,0.14-0.049,0.192c-0.071,0.137-0.062,0.22,0.028,0.26     c0.021,0.009,0.066,0.032,0.101,0.051c0.034,0.019,0.108,0.034,0.163,0.034c0.055,0,0.149,0.021,0.208,0.046     c0.06,0.025,0.179,0.052,0.267,0.06c0.155,0.014,0.159,0.012,0.229-0.064c0.043-0.048,0.083-0.131,0.102-0.214     c0.017-0.075,0.037-0.16,0.045-0.19c0.024-0.091-0.016-0.212-0.094-0.284c-0.137-0.127-0.08-0.297,0.1-0.299     c0.078-0.001,0.289-0.085,0.344-0.138c0.15-0.142,0.244-0.179,0.336-0.133c0.073,0.036,0.096,0.136,0.051,0.216     c-0.019,0.033-0.049,0.125-0.068,0.205c-0.019,0.079-0.056,0.221-0.083,0.314c-0.027,0.094-0.067,0.256-0.088,0.361     s-0.059,0.255-0.085,0.333c-0.026,0.078-0.046,0.163-0.046,0.188c0,0.025-0.023,0.1-0.052,0.166     C282.486,823.99,282.361,824.028,282.1,823.94L282.1,823.94z M278.875,823.952c-0.165-0.155-0.139-0.269,0.106-0.451     c0.104-0.078,0.168-0.069,0.287,0.04c0.184,0.168,0.192,0.274,0.029,0.418c-0.08,0.071-0.115,0.086-0.209,0.087     C278.99,824.047,278.963,824.035,278.875,823.952L278.875,823.952z M279.891,824.261c-0.162-0.04-0.255-0.202-0.208-0.363     c0.043-0.145,0.068-0.159,0.28-0.161c0.238-0.002,0.285,0.037,0.287,0.247c0.001,0.118-0.008,0.146-0.067,0.2     C280.115,824.249,279.982,824.283,279.891,824.261L279.891,824.261z M309.593,824.287c-0.076-0.063-0.091-0.091-0.092-0.172     c-0.001-0.137,0.078-0.237,0.249-0.315c0.227-0.103,0.32-0.089,0.406,0.062c0.114,0.201,0.108,0.282-0.028,0.417     c-0.075,0.075-0.089,0.079-0.262,0.081C309.697,824.361,309.677,824.357,309.593,824.287L309.593,824.287z M281.24,824.67     c-0.121-0.032-0.184-0.123-0.186-0.269c-0.001-0.111,0.007-0.129,0.085-0.19c0.05-0.039,0.13-0.073,0.193-0.082     c0.089-0.012,0.121-0.004,0.193,0.046c0.184,0.129,0.223,0.257,0.116,0.381C281.528,824.687,281.421,824.718,281.24,824.67     L281.24,824.67z M288.546,824.997l-0.093-0.081l0.013-0.201c0.007-0.11,0.029-0.244,0.049-0.297     c0.02-0.053,0.036-0.174,0.036-0.27c-0.001-0.095,0.015-0.219,0.034-0.276c0.019-0.057,0.051-0.268,0.071-0.47     c0.02-0.202,0.047-0.395,0.059-0.428c0.013-0.034,0.023-0.122,0.022-0.198c-0.001-0.075,0.019-0.207,0.044-0.294     c0.029-0.1,0.045-0.24,0.045-0.384c0-0.125,0.011-0.265,0.025-0.311c0.014-0.046,0.025-0.109,0.025-0.141     c-0.001-0.059,0.086-0.197,0.123-0.197c0.012,0,0.063,0.058,0.113,0.128c0.05,0.071,0.15,0.183,0.223,0.25     c0.32,0.296,0.306,0.27,0.202,0.367c-0.038,0.036-0.081,0.065-0.094,0.065c-0.014,0-0.055,0.031-0.092,0.068     c-0.055,0.056-0.066,0.09-0.066,0.199c0,0.072-0.017,0.174-0.038,0.227c-0.035,0.087-0.07,0.411-0.083,0.757     c-0.003,0.073-0.015,0.148-0.028,0.168c-0.013,0.02-0.028,0.193-0.034,0.385c-0.006,0.192-0.021,0.365-0.034,0.384     c-0.012,0.02-0.024,0.078-0.025,0.131c-0.004,0.195-0.047,0.372-0.105,0.433c-0.046,0.048-0.082,0.06-0.177,0.062     C288.658,825.078,288.625,825.065,288.546,824.997L288.546,824.997z M298.23,824.776l0.131-0.038l-0.009-0.125l-0.009-0.125     l-0.104-0.006c-0.087-0.005-0.115,0.005-0.169,0.062c-0.096,0.101-0.107,0.173-0.034,0.227c0.033,0.024,0.061,0.044,0.062,0.044     C298.099,824.815,298.159,824.797,298.23,824.776L298.23,824.776z M297.471,825.294c-0.052-0.072-0.055-0.089-0.031-0.221     c0.014-0.079,0.028-0.214,0.029-0.299c0.001-0.086,0.016-0.18,0.032-0.209c0.016-0.029,0.029-0.089,0.028-0.133     c-0.001-0.063,0.021-0.102,0.098-0.175c0.055-0.052,0.099-0.106,0.099-0.121c0-0.031,0.195-0.182,0.236-0.183     c0.016,0,0.049-0.022,0.074-0.049c0.024-0.027,0.075-0.049,0.112-0.049c0.037,0,0.097-0.026,0.133-0.056     c0.062-0.052,0.066-0.068,0.064-0.264c-0.001-0.126-0.018-0.252-0.043-0.318c-0.022-0.061-0.038-0.133-0.035-0.162     c0.003-0.029-0.005-0.166-0.017-0.304c-0.02-0.224-0.029-0.259-0.088-0.317c-0.036-0.036-0.079-0.065-0.096-0.065     c-0.032,0-0.149-0.137-0.133-0.155c0.172-0.184,0.479-0.473,0.513-0.484c0.07-0.022,0.176,0.025,0.203,0.091     c0.013,0.033,0.032,0.176,0.042,0.318c0.009,0.142,0.029,0.324,0.043,0.403c0.014,0.079,0.039,0.327,0.055,0.551     c0.016,0.224,0.04,0.445,0.054,0.492c0.014,0.046,0.034,0.251,0.045,0.455c0.011,0.204,0.032,0.413,0.046,0.464     c0.048,0.175,0.249,0.28,0.392,0.205c0.024-0.012,0.131-0.037,0.238-0.054c0.249-0.04,0.253-0.048,0.231-0.402     c-0.015-0.246-0.023-0.28-0.083-0.354c-0.037-0.045-0.094-0.088-0.129-0.096c-0.068-0.016-0.111-0.074-0.112-0.152     c0-0.055,0.129-0.185,0.21-0.21c0.028-0.008,0.102-0.058,0.165-0.109c0.142-0.116,0.235-0.124,0.323-0.03     c0.056,0.061,0.062,0.092,0.081,0.413c0.015,0.248,0.032,0.368,0.061,0.419c0.03,0.052,0.042,0.138,0.044,0.315     c0.001,0.166,0.015,0.271,0.043,0.332c0.035,0.079,0.036,0.098,0.005,0.165c-0.019,0.042-0.043,0.1-0.051,0.129     c-0.02,0.067-0.058,0.078-0.288,0.084c-0.103,0.003-0.232,0.018-0.287,0.033c-0.055,0.015-0.201,0.03-0.325,0.033     c-0.528,0.013-1.249,0.074-1.288,0.109c-0.029,0.026-0.114,0.035-0.337,0.037l-0.298,0.003L297.471,825.294L297.471,825.294z      M286.212,823.313c0.066-0.046,0.071-0.107,0.01-0.123c-0.077-0.019-0.14-0.126-0.145-0.247c-0.01-0.218-0.112-0.23-0.302-0.037     c-0.055,0.056-0.138,0.131-0.185,0.167l-0.086,0.065l0.062,0.063c0.105,0.105,0.222,0.147,0.414,0.148     C286.104,823.351,286.174,823.339,286.212,823.313L286.212,823.313z M286.988,825.69c-0.038-0.013-0.069-0.031-0.069-0.041     c0-0.023-0.237-0.168-0.274-0.167c-0.015,0-0.034-0.029-0.042-0.065c-0.008-0.036-0.038-0.137-0.067-0.224     c-0.05-0.152-0.049-0.268,0.002-0.299c0.037-0.023,0.024-0.097-0.026-0.139c-0.03-0.025-0.108-0.044-0.219-0.051     c-0.235-0.015-0.262-0.022-0.344-0.091c-0.059-0.049-0.076-0.088-0.094-0.217c-0.013-0.092-0.04-0.175-0.066-0.202     c-0.046-0.048-0.124-0.06-0.146-0.024c-0.007,0.012-0.047,0.028-0.089,0.036c-0.051,0.01-0.084,0.036-0.1,0.078     c-0.013,0.034-0.053,0.1-0.088,0.146c-0.062,0.079-0.072,0.083-0.225,0.085c-0.088,0.001-0.198-0.013-0.244-0.031     c-0.098-0.038-0.207-0.055-0.479-0.074c-0.39-0.026-0.57,0.003-0.6,0.097c-0.042,0.131-0.356,0.4-0.494,0.423     c-0.055,0.009-0.149,0.032-0.208,0.052c-0.059,0.019-0.118,0.029-0.132,0.021c-0.013-0.008-0.145-0.029-0.292-0.047     c-0.279-0.034-0.381-0.081-0.382-0.174c-0.001-0.057,0.17-0.143,0.236-0.119c0.071,0.026,0.188,0.024,0.188-0.002     c0-0.012,0.061-0.035,0.135-0.051c0.074-0.016,0.148-0.044,0.165-0.063s0.063-0.035,0.102-0.036c0.059,0,0.086-0.022,0.146-0.114     c0.04-0.062,0.073-0.129,0.073-0.147c0-0.019,0.022-0.061,0.049-0.095c0.029-0.037,0.049-0.098,0.048-0.151     c-0.001-0.049,0.016-0.137,0.036-0.195c0.035-0.099,0.034-0.115-0.02-0.273c-0.032-0.092-0.072-0.175-0.089-0.186     c-0.017-0.01-0.045-0.056-0.061-0.102c-0.044-0.122,0.003-0.232,0.18-0.421c0.019-0.02,0.042-0.072,0.051-0.115     c0.017-0.081,0.073-0.126,0.158-0.127c0.062-0.001,0.18,0.129,0.181,0.199c0,0.029,0.019,0.077,0.041,0.107     c0.024,0.033,0.05,0.141,0.064,0.274c0.024,0.228,0.065,0.463,0.095,0.552c0.026,0.077,0.162,0.182,0.235,0.182     c0.035,0,0.132,0.015,0.215,0.034c0.083,0.018,0.215,0.033,0.295,0.032c0.144-0.001,0.145-0.001,0.292-0.149     c0.081-0.081,0.147-0.16,0.147-0.175c-0.004-0.096-0.326-0.269-0.585-0.314c-0.091-0.016-0.154-0.127-0.135-0.234     c0.017-0.091,0.138-0.25,0.256-0.335c0.045-0.033,0.194-0.091,0.332-0.129l0.25-0.07l0.069-0.135     c0.132-0.257,0.409-0.461,0.631-0.463c0.111-0.001,0.134,0.012,0.223,0.122c0.024,0.03,0.071,0.088,0.103,0.127     c0.098,0.121,0.153,0.264,0.139,0.358c-0.014,0.088,0.023,0.228,0.061,0.228c0.034,0,0.399,0.354,0.416,0.405     c0.009,0.026,0.026,0.047,0.038,0.046c0.031,0,0.076,0.16,0.078,0.276c0.002,0.172-0.036,0.197-0.303,0.202     c-0.128,0.002-0.283,0.019-0.344,0.038l-0.112,0.033l-0.006,0.133c-0.008,0.18,0.037,0.23,0.233,0.259     c0.081,0.012,0.16,0.032,0.174,0.046c0.014,0.013,0.055,0.024,0.091,0.024c0.036,0,0.087,0.015,0.114,0.033     c0.044,0.031,0.049,0.065,0.052,0.341l0.003,0.308l0.082,0.024c0.045,0.013,0.095,0.037,0.112,0.053     c0.059,0.056,0.137,0.032,0.169-0.051c0.016-0.043,0.039-0.1,0.051-0.127c0.011-0.026,0.031-0.189,0.044-0.36     c0.012-0.172,0.038-0.355,0.057-0.408c0.019-0.053,0.046-0.226,0.059-0.383c0.014-0.158,0.037-0.302,0.053-0.32     c0.016-0.019,0.033-0.169,0.039-0.341c0.009-0.247,0.02-0.318,0.054-0.355c0.036-0.039,0.043-0.094,0.04-0.345l-0.004-0.298     l-0.1-0.083c-0.067-0.055-0.101-0.103-0.101-0.143c-0.001-0.087,0.023-0.112,0.148-0.158c0.062-0.022,0.157-0.057,0.212-0.077     c0.055-0.02,0.111-0.049,0.124-0.065c0.043-0.05,0.182-0.138,0.218-0.139c0.019,0,0.053,0.019,0.077,0.043     c0.054,0.056,0.059,0.284,0.008,0.379c-0.022,0.041-0.036,0.134-0.035,0.228c0.001,0.088-0.015,0.206-0.036,0.264     c-0.022,0.061-0.049,0.279-0.064,0.514c-0.014,0.225-0.039,0.432-0.056,0.461s-0.029,0.126-0.028,0.216     c0.001,0.09-0.015,0.255-0.035,0.368c-0.02,0.112-0.047,0.301-0.059,0.42c-0.013,0.118-0.039,0.252-0.058,0.298     c-0.019,0.045-0.041,0.159-0.049,0.254c-0.008,0.094-0.035,0.209-0.06,0.255c-0.025,0.046-0.045,0.103-0.045,0.126     c0.001,0.061-0.129,0.283-0.165,0.284c-0.017,0-0.041,0.021-0.055,0.046c-0.014,0.025-0.059,0.052-0.101,0.061     c-0.042,0.008-0.106,0.036-0.144,0.062C287.319,825.694,287.086,825.723,286.988,825.69L286.988,825.69z M308.021,823.799     c0.155-0.067,0.199-0.148,0.138-0.258c-0.052-0.094-0.128-0.132-0.252-0.124c-0.144,0.009-0.262,0.104-0.261,0.209     c0.001,0.068,0.018,0.092,0.108,0.152c0.059,0.039,0.116,0.071,0.126,0.072S307.953,823.828,308.021,823.799L308.021,823.799z      M306.026,823.817c0.107-0.049,0.119-0.064,0.119-0.134c0-0.109-0.099-0.237-0.245-0.318c-0.155-0.086-0.211-0.084-0.28,0.008     c-0.054,0.072-0.054,0.078-0.015,0.184c0.022,0.061,0.041,0.127,0.041,0.146c0,0.048,0.152,0.168,0.212,0.168     C305.885,823.872,305.96,823.847,306.026,823.817L306.026,823.817z M305.137,823.901c0.009-0.041,0.008-0.134-0.003-0.207     c-0.015-0.105-0.034-0.146-0.094-0.198c-0.09-0.078-0.137-0.07-0.244,0.038c-0.069,0.07-0.079,0.097-0.082,0.223     c-0.004,0.198,0.023,0.223,0.237,0.221C305.121,823.977,305.121,823.977,305.137,823.901L305.137,823.901z M303.151,824.273     c0.086-0.044,0.107-0.092,0.085-0.198c-0.033-0.16-0.234-0.207-0.331-0.078c-0.03,0.039-0.054,0.081-0.054,0.094     c0,0.012-0.016,0.035-0.036,0.052c-0.029,0.023-0.031,0.041-0.008,0.081c0.016,0.028,0.041,0.059,0.056,0.068     C302.91,824.322,303.077,824.311,303.151,824.273L303.151,824.273z M306.311,824.558c0.07-0.054,0.076-0.13,0.014-0.184     c-0.073-0.064-0.205-0.063-0.341,0.002c-0.081,0.039-0.104,0.063-0.104,0.11c0,0.04,0.02,0.067,0.057,0.081     C306.022,824.599,306.266,824.593,306.311,824.558L306.311,824.558z M302.435,825.715c-0.029-0.027-0.02-0.145,0.013-0.17     c0.017-0.013,0.059-0.033,0.093-0.043c0.035-0.01,0.079-0.033,0.1-0.05c0.021-0.018,0.093-0.04,0.162-0.05     c0.247-0.036,0.462-0.232,0.463-0.421c0.001-0.052-0.007-0.106-0.017-0.121c-0.028-0.043-0.46-0.017-0.694,0.042     c-0.055,0.014-0.083,0.003-0.15-0.061l-0.083-0.078l-0.012-0.353l-0.012-0.353l0.108-0.119c0.059-0.066,0.134-0.162,0.167-0.215     c0.033-0.052,0.066-0.098,0.076-0.102c0.009-0.004,0.06-0.046,0.112-0.093c0.105-0.093,0.277-0.188,0.394-0.216     c0.04-0.01,0.085-0.034,0.1-0.053c0.014-0.02,0.059-0.038,0.099-0.042c0.061-0.005,0.083,0.01,0.143,0.101     c0.039,0.059,0.072,0.14,0.074,0.179c0.002,0.04,0.021,0.115,0.042,0.168c0.021,0.052,0.045,0.158,0.055,0.233     c0.009,0.076,0.03,0.153,0.045,0.171c0.038,0.044,0.34,0.065,0.393,0.027c0.029-0.021,0.042-0.086,0.05-0.248     c0.006-0.126,0.027-0.251,0.048-0.294c0.021-0.041,0.045-0.11,0.054-0.153c0.024-0.118,0.222-0.391,0.34-0.469     c0.057-0.038,0.118-0.082,0.135-0.098c0.017-0.016,0.056-0.036,0.087-0.046c0.075-0.023,0.092-0.054,0.091-0.16     c-0.001-0.091-0.077-0.197-0.234-0.324c-0.038-0.031-0.07-0.075-0.07-0.098c-0.001-0.068,0.073-0.197,0.188-0.331     c0.059-0.069,0.108-0.134,0.108-0.145c0-0.011,0.04-0.045,0.087-0.074c0.068-0.043,0.1-0.049,0.149-0.032     c0.067,0.023,0.086,0.057,0.147,0.262c0.082,0.272,0.101,0.351,0.121,0.505c0.011,0.087,0.028,0.169,0.037,0.184     c0.009,0.014,0.12,0.048,0.246,0.075c0.126,0.027,0.252,0.063,0.282,0.081c0.029,0.017,0.081,0.039,0.116,0.049     c0.086,0.024,0.202,0.107,0.202,0.145c0,0.017,0.01,0.032,0.021,0.031c0.027,0,0.153,0.183,0.269,0.391     c0.13,0.234,0.122,0.229,0.331,0.227c0.167-0.001,0.187-0.007,0.234-0.066c0.028-0.035,0.051-0.093,0.05-0.129     c-0.001-0.075,0.063-0.163,0.22-0.302c0.06-0.053,0.134-0.119,0.163-0.146c0.097-0.088,0.207-0.158,0.25-0.159     c0.023,0,0.146,0.043,0.275,0.095c0.189,0.077,0.246,0.113,0.303,0.19c0.124,0.168,0.388,0.237,0.519,0.136     c0.035-0.027,0.075-0.049,0.09-0.049c0.015,0,0.027-0.017,0.027-0.037c0-0.051-0.103-0.328-0.134-0.363     c-0.014-0.016-0.037-0.113-0.051-0.215c-0.014-0.102-0.049-0.235-0.077-0.294c-0.035-0.072-0.057-0.182-0.067-0.335     c-0.009-0.125-0.038-0.307-0.065-0.405c-0.027-0.098-0.05-0.208-0.05-0.245c-0.002-0.177-0.152-0.411-0.305-0.474     c-0.035-0.014-0.091-0.041-0.126-0.06c-0.09-0.049-0.209-0.042-0.262,0.015c-0.025,0.027-0.068,0.049-0.097,0.049     c-0.053,0-0.213,0.13-0.213,0.171c0,0.012-0.037,0.023-0.082,0.023c-0.067,0.001-0.097-0.018-0.163-0.099     c-0.045-0.055-0.082-0.111-0.082-0.125c0-0.014-0.046-0.063-0.101-0.109c-0.082-0.068-0.101-0.099-0.102-0.169     c-0.001-0.069,0.011-0.092,0.061-0.114c0.034-0.015,0.062-0.038,0.062-0.051c0-0.013,0.042-0.031,0.093-0.04     c0.051-0.009,0.183-0.039,0.293-0.068c0.276-0.071,0.773-0.076,0.894-0.007c0.045,0.025,0.11,0.052,0.146,0.06     c0.082,0.018,0.299,0.217,0.343,0.317c0.019,0.042,0.045,0.082,0.058,0.09c0.013,0.008,0.032,0.059,0.042,0.115     c0.01,0.056,0.034,0.134,0.052,0.173c0.028,0.059,0.066,0.306,0.104,0.683c0.007,0.068,0.057,0.299,0.097,0.443     c0.015,0.053,0.043,0.175,0.063,0.272c0.02,0.097,0.055,0.194,0.077,0.217c0.021,0.023,0.04,0.06,0.04,0.084     c0.001,0.093,0.259,0.251,0.41,0.25c0.131-0.001,0.327-0.09,0.45-0.203c0.07-0.065,0.154-0.124,0.187-0.132     c0.068-0.017,0.177,0.035,0.216,0.102c0.047,0.082,0.126,0.154,0.231,0.213c0.113,0.063,0.154,0.146,0.111,0.225     c-0.014,0.026-0.045,0.048-0.069,0.049c-0.024,0-0.103,0.028-0.176,0.062c-0.073,0.034-0.154,0.062-0.179,0.062     c-0.026,0-0.168,0.039-0.315,0.087c-0.148,0.048-0.409,0.116-0.581,0.151c-0.303,0.063-0.71,0.175-0.76,0.211     c-0.014,0.01-0.07,0.025-0.125,0.035c-0.17,0.03-0.185,0.039-0.201,0.126c-0.02,0.107-0.249,0.347-0.418,0.437     c-0.117,0.063-0.142,0.066-0.434,0.066c-0.17-0.001-0.33-0.006-0.355-0.013c-0.025-0.007-0.053-0.045-0.062-0.084     c-0.009-0.039-0.051-0.093-0.092-0.121c-0.08-0.053-0.171-0.052-0.375,0.006l-0.091,0.026l-0.015,0.237     c-0.008,0.13-0.03,0.262-0.048,0.294c-0.018,0.032-0.044,0.079-0.057,0.105c-0.013,0.026-0.081,0.097-0.151,0.158     c-0.07,0.06-0.172,0.15-0.227,0.2c-0.113,0.104-0.21,0.119-0.277,0.045c-0.025-0.027-0.074-0.048-0.116-0.047     c-0.084,0.001-0.278-0.079-0.401-0.164c-0.075-0.052-0.232-0.309-0.233-0.38c0-0.014-0.023-0.047-0.051-0.073     c-0.04-0.038-0.083-0.047-0.207-0.045c-0.086,0.001-0.207,0.014-0.269,0.028c-0.062,0.013-0.212,0.037-0.334,0.051     c-0.122,0.015-0.258,0.041-0.302,0.06c-0.044,0.018-0.128,0.041-0.186,0.051c-0.154,0.026-0.2,0.083-0.199,0.239     c0.001,0.083-0.011,0.139-0.034,0.158c-0.02,0.016-0.042,0.06-0.05,0.097c-0.021,0.097-0.226,0.295-0.371,0.36     c-0.068,0.031-0.166,0.077-0.216,0.104c-0.076,0.04-0.142,0.048-0.377,0.051C302.58,825.729,302.445,825.724,302.435,825.715     L302.435,825.715z M300.452,825.931l-0.057-0.039l0.05-0.069c0.028-0.038,0.092-0.083,0.143-0.1     c0.174-0.057,0.292-0.128,0.434-0.263c0.078-0.074,0.142-0.153,0.142-0.176s0.03-0.077,0.067-0.12     c0.065-0.076,0.068-0.09,0.063-0.332c-0.005-0.248-0.018-0.3-0.11-0.443c-0.044-0.068-0.193-0.176-0.345-0.25     c-0.101-0.049-0.137-0.149-0.085-0.234c0.022-0.036,0.091-0.168,0.154-0.294c0.063-0.126,0.127-0.256,0.144-0.289     c0.045-0.091,0.157-0.096,0.233-0.01c0.071,0.081,0.187,0.285,0.187,0.331c0,0.018,0.022,0.052,0.048,0.076     c0.057,0.05,0.18,0.262,0.181,0.31c0,0.019,0.03,0.082,0.066,0.14c0.045,0.072,0.067,0.142,0.068,0.22     c0.002,0.063,0.02,0.154,0.04,0.203c0.06,0.143,0.041,0.622-0.031,0.757c-0.03,0.056-0.063,0.103-0.073,0.103     c-0.01,0-0.051,0.045-0.092,0.099c-0.077,0.103-0.342,0.289-0.412,0.29c-0.023,0-0.058,0.025-0.078,0.055     c-0.034,0.051-0.057,0.055-0.359,0.065C300.564,825.968,300.499,825.963,300.452,825.931L300.452,825.931z M298.17,826.08     c-0.081-0.083-0.098-0.118-0.099-0.2c-0.001-0.082,0.015-0.115,0.094-0.195c0.146-0.147,0.217-0.151,0.47-0.023     c0.241,0.122,0.322,0.133,0.344,0.047c0.021-0.083,0.159-0.159,0.291-0.16c0.083-0.001,0.131,0.016,0.197,0.068     c0.084,0.065,0.088,0.075,0.09,0.226c0.002,0.154-0.001,0.16-0.097,0.245c-0.092,0.081-0.107,0.086-0.222,0.075     c-0.146-0.015-0.233-0.081-0.257-0.196c-0.017-0.083-0.047-0.104-0.069-0.047c-0.007,0.018-0.043,0.041-0.079,0.05     c-0.068,0.017-0.183,0.09-0.265,0.167c-0.031,0.029-0.085,0.043-0.173,0.044C298.277,826.181,298.261,826.174,298.17,826.08     L298.17,826.08z M296.067,824.782c0.055-0.021,0.067-0.037,0.055-0.077c-0.008-0.027-0.028-0.101-0.043-0.164     c-0.024-0.098-0.036-0.114-0.089-0.113c-0.057,0-0.163,0.06-0.26,0.146c-0.048,0.043-0.077,0.146-0.051,0.181     C295.735,824.833,295.902,824.844,296.067,824.782z M294.136,825.507c0.055-0.042,0.057-0.053,0.054-0.494l-0.002-0.451     l-0.067-0.059c-0.064-0.056-0.088-0.06-0.548-0.078c-0.265-0.01-0.524-0.033-0.577-0.049c-0.07-0.021-0.132-0.023-0.223-0.007     c-0.082,0.015-0.18,0.015-0.281-0.001c-0.374-0.059-0.623-0.012-0.713,0.134c-0.043,0.069-0.043,0.076-0.002,0.141     c0.023,0.037,0.071,0.073,0.106,0.079c0.034,0.006,0.115,0.026,0.179,0.045c0.071,0.021,0.222,0.034,0.388,0.034     c0.149,0,0.401,0.007,0.559,0.017c0.158,0.01,0.378,0.021,0.489,0.023c0.144,0.004,0.221,0.017,0.272,0.049l0.071,0.044     l-0.015,0.232c-0.014,0.222-0.012,0.234,0.044,0.282c0.067,0.057,0.148,0.102,0.184,0.102     C294.068,825.55,294.105,825.531,294.136,825.507L294.136,825.507z M293.925,826.275c0-0.012-0.063-0.049-0.139-0.084     c-0.147-0.067-0.273-0.17-0.351-0.284c-0.054-0.08-0.117-0.281-0.118-0.378c0-0.048-0.016-0.069-0.057-0.078     c-0.17-0.037-0.602-0.084-0.92-0.101c-0.2-0.01-0.573-0.039-0.83-0.064c-0.558-0.055-0.771-0.048-0.846,0.031     c-0.028,0.03-0.063,0.089-0.078,0.132c-0.015,0.043-0.069,0.134-0.121,0.204c-0.052,0.069-0.094,0.137-0.094,0.151     c0,0.014-0.011,0.025-0.025,0.025c-0.014,0-0.045,0.02-0.07,0.043c-0.063,0.06-0.192,0.148-0.258,0.178     c-0.031,0.014-0.084,0.041-0.118,0.06c-0.09,0.051-0.715,0.057-0.816,0.008c-0.039-0.019-0.106-0.035-0.148-0.035     c-0.042,0-0.098-0.014-0.125-0.033c-0.04-0.027-0.044-0.045-0.024-0.101c0.029-0.082,0.112-0.103,0.435-0.108     c0.18-0.003,0.232-0.014,0.337-0.068c0.125-0.065,0.34-0.222,0.356-0.261c0.005-0.011,0.03-0.039,0.056-0.06     c0.025-0.022,0.053-0.077,0.062-0.124c0.008-0.047,0.036-0.128,0.063-0.179c0.056-0.109,0.049-0.175-0.046-0.446     c-0.097-0.279-0.132-0.341-0.243-0.434c-0.14-0.118-0.136-0.174,0.02-0.333c0.068-0.069,0.164-0.186,0.213-0.258     c0.079-0.117,0.097-0.13,0.167-0.125c0.067,0.006,0.089,0.026,0.149,0.138c0.094,0.173,0.223,0.472,0.223,0.518     c0,0.02,0.017,0.07,0.036,0.112c0.02,0.042,0.049,0.115,0.066,0.163c0.04,0.119,0.062,0.132,0.269,0.149     c0.217,0.019,0.22,0.015,0.239-0.276c0.007-0.111,0.024-0.214,0.038-0.227c0.014-0.013,0.025-0.046,0.024-0.072     c-0.001-0.058-0.125-0.401-0.157-0.432c-0.042-0.041-0.025-0.164,0.038-0.27c0.034-0.058,0.072-0.105,0.083-0.105     c0.011,0,0.063-0.029,0.115-0.063c0.13-0.087,0.326-0.108,0.409-0.044c0.054,0.041,0.063,0.07,0.075,0.258     c0.012,0.191,0.02,0.216,0.08,0.266c0.036,0.03,0.093,0.055,0.127,0.055c0.033,0,0.081,0.018,0.106,0.039     c0.038,0.032,0.126,0.039,0.527,0.042c0.555,0.004,0.866,0.019,0.905,0.043c0.015,0.009,0.112,0.016,0.215,0.016     c0.103-0.001,0.328,0.007,0.5,0.017c0.301,0.017,0.315,0.021,0.388,0.09l0.076,0.071l0.006,0.319     c0.007,0.369,0.028,0.416,0.189,0.414c0.141-0.001,0.181-0.045,0.192-0.208c0.006-0.078,0.024-0.153,0.042-0.167     c0.018-0.014,0.049-0.065,0.069-0.113c0.042-0.1,0.216-0.275,0.297-0.3c0.03-0.009,0.076-0.036,0.104-0.059     c0.027-0.023,0.083-0.049,0.124-0.057c0.18-0.034,0.378-0.1,0.424-0.143c0.033-0.029,0.093-0.048,0.167-0.051     c0.096-0.005,0.126,0.005,0.167,0.052c0.06,0.067,0.071,0.119,0.094,0.449c0.01,0.136,0.03,0.276,0.046,0.312     c0.015,0.035,0.034,0.204,0.043,0.376l0.015,0.312l-0.078,0.103l-0.078,0.103l-0.809,0.007c-0.445,0.004-0.848,0.014-0.895,0.023     c-0.094,0.018-0.116,0.067-0.114,0.252c0.001,0.057-0.016,0.104-0.047,0.131c-0.026,0.023-0.054,0.068-0.062,0.099     c-0.015,0.06-0.181,0.186-0.287,0.218c-0.034,0.01-0.079,0.032-0.1,0.048c-0.059,0.047-0.246,0.136-0.287,0.136     C293.941,826.297,293.925,826.287,293.925,826.275L293.925,826.275z"/>
                                        <path id="_x39_" fill="#FFFFFF" stroke="#C09300" stroke-width="0.4234" d="M298.604,780.865c0.222,0.013-0.3-1.189-0.3-1.189     c0.588,0.601,2.81,0.745,2.81,0.745c-1.333-0.589-2.666-5.032-2.509-8.574c0.144-3.555-0.509-4.953-1.032-5.476     c-0.667-0.667-2.81-1.255-4.221-1.333c-0.797-0.039-0.666,0.601-0.666,0.601c-1.477-0.379-2.953-0.523-3.62-0.078     c-0.627,0.418-0.758,2.509-0.301,2.143c1.111-0.889,2.078-0.078,2.745,0.889c0.588,0.85,0.549,3.254-0.301,6.064     c-0.889,2.953-3.32,5.907-3.32,5.907c1.32,0,3.176-1.176,3.176-1.176l-0.444,1.843c1.398-0.667,2.509-1.699,2.509-1.699     l1.333,1.398c0.444-0.588,1.333-1.398,1.333-1.398S296.905,780.708,298.604,780.865L298.604,780.865z"/>
                                        <path id="_x38_" fill="none" stroke="#C09300" stroke-width="0.4234" d="M293.206,772.357c0,0-0.745,5.476-2.143,7.031"/>
                                        <path id="_x37_" fill="none" stroke="#C09300" stroke-width="0.4234" d="M294.383,772.213c0,0-0.287,5.541-1.255,7.319"/>
                                        <path id="_x36_" fill="none" stroke="#C09300" stroke-width="0.4234" d="M295.428,772.435c0,0,0,6.064,0.366,7.096"/>
                                        <path id="_x35_" fill="none" stroke="#C09300" stroke-width="0.4234" d="M296.748,772.736c0,0,0.301,5.097,1.555,6.94"/>
                                        <path id="_x34_" fill="#C09300" stroke="#C09300" stroke-width="0.4234" d="M291.86,769.704     c-0.065-0.484-0.183-0.863-0.353-1.111c-0.667-0.967-1.634-1.777-2.744-0.889c0,0,0.379-1.176,1.189-1.216     c0.627-0.039,2.052,0.47,3.307,2.614c0,0-0.928-0.209-1.15-0.013C291.69,769.456,291.86,769.704,291.86,769.704L291.86,769.704z"/>
                                        <path id="_x33_" fill="#C09300" stroke="#C09300" stroke-width="0.4234" d="M288.645,766.253c0.091-0.3,0.235-0.575,0.418-0.693     c0.667-0.444,2.144-0.3,3.62,0.078c0,0-0.131-0.64,0.667-0.601c1.411,0.078,3.555,0.667,4.221,1.333     c0.157,0.17,0.34,0.418,0.496,0.797h-0.026c-0.327-0.457-1.255-0.431-1.477-0.405c-0.353,0.039-0.575,0.026-1.046,0.144     c-0.222,0.052-0.562,0.118-0.745,0.261c-0.144,0.118-0.261,0.549-0.484,0.549c-0.353,0-0.327-0.091-0.418-0.196     c-0.118-0.144-0.183-0.353-0.3-0.34c-0.366,0.065-0.954-0.222-1.699-0.81c-0.745-0.588-1.033-0.732-2-0.666     c-0.954,0.078-1.255,0.614-1.255,0.614L288.645,766.253L288.645,766.253z"/>
                                        <path id="_x32_" fill="#FFFFFF" d="M294.108,767.116c0.222,0,0.392-0.17,0.392-0.392c0-0.222-0.17-0.392-0.392-0.392     c-0.209,0-0.392,0.17-0.392,0.392C293.716,766.946,293.899,767.116,294.108,767.116z"/>
                                        <path id="_x31_" fill="none" stroke="#C09300" stroke-width="0.3052" d="M303.573,785.846c-0.094,0.006-0.188,0.009-0.283,0.009     c-2.069,0-6.873-1.061-8.725-2.652c-1.94,1.47-6.824,2.652-8.859,2.652c-0.095,0-0.19-0.012-0.283-0.029     c-0.005,0.464,0.019,0.944,0.048,1.381c0.107,1.633,0.394,3.273,0.829,4.851c1.369,4.965,4.172,9.184,8.191,12.385     c4.022-3.203,6.828-7.427,8.2-12.396c0.436-1.577,0.723-3.216,0.832-4.85C303.553,786.77,303.576,786.301,303.573,785.846     L303.573,785.846z"/>
                                    </g>
                                </g>
                            </switch>
                        </svg>